<svg width="185" height="48" viewBox="0 0 185 48" fill="none" xmlns="http://www.w3.org/2000/svg">
    <g id="CvLogo">
<path d="M47.29 23.79C47.29 29.2269 45.4049 34.4955 41.9558 38.6983C38.5067 42.901 33.707 45.7778 28.3747 46.8385C23.0423 47.8992 17.5071 47.0781 12.7122 44.5152C7.91734 41.9523 4.15946 37.8061 2.07887 32.7831C-0.00172168 27.7601 -0.276293 22.1711 1.30194 16.9684C2.88017 11.7656 6.21356 7.27106 10.7341 4.2505C15.2547 1.22995 20.6828 -0.129706 26.0934 0.403198C31.5041 0.936101 36.5626 3.3286 40.407 7.17303L37.8386 9.74152C34.5884 6.49133 30.3117 4.46864 25.7374 4.01811C21.1631 3.56757 16.574 4.71707 12.7522 7.27073C8.93036 9.8244 6.11222 13.6242 4.77793 18.0228C3.44365 22.4213 3.67578 27.1465 5.43477 31.393C7.19377 35.6396 10.3708 39.1449 14.4245 41.3117C18.4782 43.4785 23.1579 44.1726 27.666 43.2759C32.1742 42.3792 36.2319 39.947 39.1479 36.3939C42.0639 32.8408 43.6576 28.3865 43.6576 23.79H47.29Z" fill="white"/>
<path d="M15.3059 39.0958C11.7648 37.1329 9.01386 34.003 7.52178 30.2392C6.02971 26.4755 5.88882 22.3108 7.12313 18.4548C8.35744 14.5988 10.8906 11.2901 14.2909 9.09244C17.6913 6.89477 21.7484 5.9441 25.7711 6.40243C29.7938 6.86076 33.5331 8.69972 36.352 11.606C39.1708 14.5122 40.8947 18.306 41.23 22.3408C41.5652 26.3756 40.4911 30.4018 38.1906 33.7335C35.8901 37.0651 32.5056 39.496 28.6137 40.612L27.8681 38.0118C31.1584 37.0683 34.0198 35.0132 35.9647 32.1965C37.9096 29.3798 38.8177 25.9759 38.5343 22.5648C38.2508 19.1536 36.7934 15.9463 34.4103 13.4893C32.0271 11.0322 28.8658 9.4775 25.4649 9.09002C22.064 8.70254 18.634 9.50626 15.7592 11.3642C12.8844 13.2222 10.7429 16.0195 9.69934 19.2795C8.65582 22.5394 8.77493 26.0604 10.0364 29.2424C11.2978 32.4243 13.6235 35.0705 16.6173 36.73L15.3059 39.0958Z" fill="white"/>
<path d="M23.79 11.29C26.682 11.29 29.4845 12.2928 31.72 14.1274C33.9555 15.962 35.4857 18.515 36.0499 21.3514C36.614 24.1878 36.1773 27.132 34.8141 29.6825C33.4508 32.233 31.2454 34.2318 28.5736 35.3385C25.9018 36.4452 22.9289 36.5913 20.1615 35.7518C17.3941 34.9123 15.0033 33.1392 13.3967 30.7347C11.79 28.3301 11.0668 25.4428 11.3502 22.5648C11.6337 19.6868 12.9063 16.9961 14.9512 14.9512L16.3174 16.3174C14.5886 18.0463 13.5127 20.321 13.2731 22.7542C13.0334 25.1874 13.6448 27.6283 15.0032 29.6612C16.3615 31.6941 18.3827 33.1931 20.7223 33.9029C23.062 34.6126 25.5754 34.4891 27.8342 33.5535C30.093 32.6178 31.9575 30.9279 33.1101 28.7717C34.2626 26.6155 34.6318 24.1263 34.1549 21.7283C33.6779 19.3304 32.3842 17.172 30.4942 15.621C28.6043 14.0699 26.235 13.2222 23.79 13.2222L23.79 11.29Z" fill="white"/>
<path d="M16.3202 19.7343C17.2585 18.0061 18.7671 16.6567 20.5888 15.916C22.4105 15.1754 24.4327 15.0893 26.3107 15.6725C28.1888 16.2556 29.8066 17.4719 30.8884 19.1141C31.9702 20.7563 32.4491 22.7229 32.2436 24.6786C32.038 26.6344 31.1607 28.4583 29.7611 29.8397C28.3615 31.2211 26.5262 32.0745 24.5679 32.2545C22.6096 32.4344 20.6495 31.9298 19.0216 30.8266C17.3937 29.7233 16.1987 28.0898 15.6402 26.2043L17.0174 25.7963C17.4815 27.3632 18.4746 28.7207 19.8274 29.6375C21.1802 30.5543 22.8091 30.9737 24.4365 30.8241C26.0638 30.6746 27.589 29.9654 28.7521 28.8175C29.9152 27.6695 30.6443 26.1537 30.8151 24.5285C30.9859 22.9032 30.5879 21.269 29.6889 19.9043C28.7899 18.5396 27.4455 17.5288 25.8848 17.0442C24.3241 16.5596 22.6436 16.6311 21.1298 17.2466C19.6159 17.8621 18.3622 18.9835 17.5825 20.4196L16.3202 19.7343Z" fill="white"/>
<path d="M27.5097 26.3227C26.9238 27.1833 26.0576 27.8141 25.0587 28.1076C24.0598 28.4011 22.9901 28.3392 22.0318 27.9324C21.0734 27.5256 20.2858 26.7991 19.8031 25.8767C19.3203 24.9543 19.1723 23.893 19.3844 22.8737C19.5964 21.8544 20.1552 20.9402 20.9658 20.2868C21.7763 19.6334 22.7883 19.2812 23.8293 19.2903C24.8704 19.2994 25.8761 19.6692 26.6751 20.3366C27.4741 21.0041 28.0169 21.9279 28.2111 22.9508L27.3835 23.1079C27.2256 22.2765 26.7844 21.5256 26.135 20.9831C25.4856 20.4406 24.6682 20.14 23.822 20.1326C22.9758 20.1253 22.1532 20.4115 21.4945 20.9426C20.8357 21.4737 20.3814 22.2168 20.2091 23.0453C20.0368 23.8737 20.157 24.7363 20.5494 25.4861C20.9418 26.2358 21.582 26.8263 22.3609 27.157C23.1399 27.4876 24.0093 27.5379 24.8212 27.2994C25.6331 27.0608 26.3371 26.5481 26.8134 25.8486L27.5097 26.3227Z" fill="white"/>
<path d="M22.9968 21.4192C23.5453 21.2357 24.1405 21.248 24.6809 21.4541C25.2213 21.6602 25.6736 22.0473 25.9606 22.5495C26.2476 23.0516 26.3516 23.6378 26.2549 24.208C26.1582 24.7783 25.8667 25.2973 25.4302 25.6768C24.9937 26.0563 24.4391 26.2726 23.861 26.289C23.2828 26.3054 22.7169 26.1209 22.2595 25.7668C21.8022 25.4127 21.4818 24.9109 21.3529 24.3471C21.224 23.7832 21.2947 23.1922 21.5527 22.6745L22.4295 23.1117C22.2725 23.4264 22.2296 23.7859 22.308 24.1288C22.3863 24.4717 22.5812 24.7768 22.8593 24.9921C23.1374 25.2075 23.4816 25.3197 23.8332 25.3098C24.1848 25.2998 24.522 25.1682 24.7875 24.9374C25.053 24.7067 25.2302 24.391 25.289 24.0442C25.3478 23.6974 25.2846 23.341 25.11 23.0356C24.9355 22.7302 24.6605 22.4948 24.3318 22.3695C24.0032 22.2442 23.6412 22.2367 23.3077 22.3483L22.9968 21.4192Z" fill="white"/>
<circle cx="23.79" cy="23.79" r="0.5" transform="rotate(-180 23.79 23.79)" fill="white"/>
<path d="M77.12 19.65C77.12 20.71 76.87 21.71 76.37 22.65C75.87 23.59 75.07 24.36 73.97 24.96C72.87 25.54 71.46 25.83 69.74 25.83H65.96V34.29H62.54V13.44H69.74C71.34 13.44 72.69 13.72 73.79 14.28C74.91 14.82 75.74 15.56 76.28 16.5C76.84 17.44 77.12 18.49 77.12 19.65ZM69.74 23.04C71.04 23.04 72.01 22.75 72.65 22.17C73.29 21.57 73.61 20.73 73.61 19.65C73.61 17.37 72.32 16.23 69.74 16.23H65.96V23.04H69.74ZM87.5518 34.56C85.9918 34.56 84.5818 34.21 83.3218 33.51C82.0618 32.79 81.0718 31.79 80.3518 30.51C79.6318 29.21 79.2718 27.71 79.2718 26.01C79.2718 24.33 79.6418 22.84 80.3818 21.54C81.1218 20.24 82.1318 19.24 83.4118 18.54C84.6918 17.84 86.1218 17.49 87.7018 17.49C89.2818 17.49 90.7118 17.84 91.9918 18.54C93.2718 19.24 94.2818 20.24 95.0218 21.54C95.7618 22.84 96.1318 24.33 96.1318 26.01C96.1318 27.69 95.7518 29.18 94.9918 30.48C94.2318 31.78 93.1918 32.79 91.8718 33.51C90.5718 34.21 89.1318 34.56 87.5518 34.56ZM87.5518 31.59C88.4318 31.59 89.2518 31.38 90.0118 30.96C90.7918 30.54 91.4218 29.91 91.9018 29.07C92.3818 28.23 92.6218 27.21 92.6218 26.01C92.6218 24.81 92.3918 23.8 91.9318 22.98C91.4718 22.14 90.8618 21.51 90.1018 21.09C89.3418 20.67 88.5218 20.46 87.6418 20.46C86.7618 20.46 85.9418 20.67 85.1818 21.09C84.4418 21.51 83.8518 22.14 83.4118 22.98C82.9718 23.8 82.7518 24.81 82.7518 26.01C82.7518 27.79 83.2018 29.17 84.1018 30.15C85.0218 31.11 86.1718 31.59 87.5518 31.59ZM102.933 20.16C103.433 19.32 104.093 18.67 104.913 18.21C105.753 17.73 106.743 17.49 107.883 17.49V21.03H107.013C105.673 21.03 104.653 21.37 103.953 22.05C103.273 22.73 102.933 23.91 102.933 25.59V34.29H99.5127V17.76H102.933V20.16ZM115.016 20.55V29.7C115.016 30.32 115.156 30.77 115.436 31.05C115.736 31.31 116.236 31.44 116.936 31.44H119.036V34.29H116.336C114.796 34.29 113.616 33.93 112.796 33.21C111.976 32.49 111.566 31.32 111.566 29.7V20.55H109.616V17.76H111.566V13.65H115.016V17.76H119.036V20.55H115.016ZM129.118 20.55H126.058V34.29H122.608V20.55H120.658V17.76H122.608V16.59C122.608 14.69 123.108 13.31 124.108 12.45C125.128 11.57 126.718 11.13 128.878 11.13V13.98C127.838 13.98 127.108 14.18 126.688 14.58C126.268 14.96 126.058 15.63 126.058 16.59V17.76H129.118V20.55ZM139.319 34.56C137.759 34.56 136.349 34.21 135.089 33.51C133.829 32.79 132.839 31.79 132.119 30.51C131.399 29.21 131.039 27.71 131.039 26.01C131.039 24.33 131.409 22.84 132.149 21.54C132.889 20.24 133.899 19.24 135.179 18.54C136.459 17.84 137.889 17.49 139.469 17.49C141.049 17.49 142.479 17.84 143.759 18.54C145.039 19.24 146.049 20.24 146.789 21.54C147.529 22.84 147.899 24.33 147.899 26.01C147.899 27.69 147.519 29.18 146.759 30.48C145.999 31.78 144.959 32.79 143.639 33.51C142.339 34.21 140.899 34.56 139.319 34.56ZM139.319 31.59C140.199 31.59 141.019 31.38 141.779 30.96C142.559 30.54 143.189 29.91 143.669 29.07C144.149 28.23 144.389 27.21 144.389 26.01C144.389 24.81 144.159 23.8 143.699 22.98C143.239 22.14 142.629 21.51 141.869 21.09C141.109 20.67 140.289 20.46 139.409 20.46C138.529 20.46 137.709 20.67 136.949 21.09C136.209 21.51 135.619 22.14 135.179 22.98C134.739 23.8 134.519 24.81 134.519 26.01C134.519 27.79 134.969 29.17 135.869 30.15C136.789 31.11 137.939 31.59 139.319 31.59ZM154.7 12.09V34.29H151.28V12.09H154.7ZM160.93 15.57C160.31 15.57 159.79 15.36 159.37 14.94C158.95 14.52 158.74 14 158.74 13.38C158.74 12.76 158.95 12.24 159.37 11.82C159.79 11.4 160.31 11.19 160.93 11.19C161.53 11.19 162.04 11.4 162.46 11.82C162.88 12.24 163.09 12.76 163.09 13.38C163.09 14 162.88 14.52 162.46 14.94C162.04 15.36 161.53 15.57 160.93 15.57ZM162.61 17.76V34.29H159.19V17.76H162.61ZM174.271 34.56C172.711 34.56 171.301 34.21 170.041 33.51C168.781 32.79 167.791 31.79 167.071 30.51C166.351 29.21 165.991 27.71 165.991 26.01C165.991 24.33 166.361 22.84 167.101 21.54C167.841 20.24 168.851 19.24 170.131 18.54C171.411 17.84 172.841 17.49 174.421 17.49C176.001 17.49 177.431 17.84 178.711 18.54C179.991 19.24 181.001 20.24 181.741 21.54C182.481 22.84 182.851 24.33 182.851 26.01C182.851 27.69 182.471 29.18 181.711 30.48C180.951 31.78 179.911 32.79 178.591 33.51C177.291 34.21 175.851 34.56 174.271 34.56ZM174.271 31.59C175.151 31.59 175.971 31.38 176.731 30.96C177.511 30.54 178.141 29.91 178.621 29.07C179.101 28.23 179.341 27.21 179.341 26.01C179.341 24.81 179.111 23.8 178.651 22.98C178.191 22.14 177.581 21.51 176.821 21.09C176.061 20.67 175.241 20.46 174.361 20.46C173.481 20.46 172.661 20.67 171.901 21.09C171.161 21.51 170.571 22.14 170.131 22.98C169.691 23.8 169.471 24.81 169.471 26.01C169.471 27.79 169.921 29.17 170.821 30.15C171.741 31.11 172.891 31.59 174.271 31.59Z" fill="white"/>
    </g>

    <!-- <g id="TG">
    <path d="M32.1586 0.340967L1.1503 12.5808C-0.0975299 13.1508 -0.519581 14.2923 0.8487 14.9118L8.80368 17.4995L28.0378 5.33177C29.088 4.5679 30.1632 4.77159 29.238 5.6119L12.7185 20.9224L12.1996 27.4017C12.6802 28.4021 13.5603 28.4068 14.1216 27.9095L18.692 23.4829L26.5195 29.4827C28.3375 30.5844 29.3267 29.8734 29.7179 27.8541L34.852 2.96937C35.3851 0.483814 34.476 -0.611346 32.1586 0.340967Z" fill="white"/>
    </g>

    <g id="Linkedin">
<rect width="32" height="32" rx="3" fill="white"/>
<path d="M6.33333 2.5C4.76853 2.5 3.5 3.76853 3.5 5.33333C3.5 6.89814 4.76853 8.16667 6.33333 8.16667C7.89814 8.16667 9.16667 6.89814 9.16667 5.33333C9.16667 3.76853 7.89814 2.5 6.33333 2.5Z" fill="black"/>
<path d="M3.66667 10.5C3.57462 10.5 3.5 10.5746 3.5 10.6667V28C3.5 28.092 3.57462 28.1667 3.66667 28.1667H9C9.09205 28.1667 9.16667 28.092 9.16667 28V10.6667C9.16667 10.5746 9.09205 10.5 9 10.5H3.66667Z" fill="black"/>
<path d="M12.3333 10.5C12.2413 10.5 12.1667 10.5746 12.1667 10.6667V28C12.1667 28.092 12.2413 28.1667 12.3333 28.1667H17.6667C17.7587 28.1667 17.8333 28.092 17.8333 28V18.6667C17.8333 18.0036 18.0967 17.3677 18.5656 16.8989C19.0344 16.4301 19.6703 16.1667 20.3333 16.1667C20.9964 16.1667 21.6323 16.4301 22.1011 16.8989C22.5699 17.3677 22.8333 18.0036 22.8333 18.6667V28C22.8333 28.092 22.908 28.1667 23 28.1667H28.3333C28.4254 28.1667 28.5 28.092 28.5 28V16.507C28.5 13.2713 25.6859 10.74 22.4665 11.0327C21.4736 11.1229 20.4919 11.3697 19.5753 11.7626L17.8333 12.5091V10.6667C17.8333 10.5746 17.7587 10.5 17.6667 10.5H12.3333Z" fill="black"/>
    </g>

    <g id="Github">
    <path fill-rule="evenodd" clip-rule="evenodd" d="M16.0001 1C7.52841 1 0.666748 7.86167 0.666748 16.3333C0.666748 23.1183 5.05591 28.8492 11.1509 30.8808C11.9176 31.015 12.2051 30.555 12.2051 30.1525C12.2051 29.7883 12.1859 28.5808 12.1859 27.2967C8.33342 28.0058 7.33675 26.3575 7.03008 25.495C6.85758 25.0542 6.11008 23.6933 5.45841 23.3292C4.92175 23.0417 4.15508 22.3325 5.43925 22.3133C6.64675 22.2942 7.50925 23.425 7.79675 23.885C9.17675 26.2042 11.3809 25.5525 12.2626 25.15C12.3967 24.1533 12.7992 23.4825 13.2401 23.0992C9.82841 22.7158 6.26341 21.3933 6.26341 15.5283C6.26341 13.8608 6.85758 12.4808 7.83508 11.4075C7.68175 11.0242 7.14508 9.4525 7.98841 7.34417C7.98841 7.34417 9.27258 6.94167 12.2051 8.91583C13.4317 8.57083 14.7351 8.39833 16.0384 8.39833C17.3417 8.39833 18.6451 8.57083 19.8717 8.91583C22.8042 6.9225 24.0884 7.34417 24.0884 7.34417C24.9317 9.4525 24.3951 11.0242 24.2417 11.4075C25.2192 12.4808 25.8134 13.8417 25.8134 15.5283C25.8134 21.4125 22.2292 22.7158 18.8176 23.0992C19.3734 23.5783 19.8526 24.4983 19.8526 25.9358C19.8526 27.9867 19.8334 29.635 19.8334 30.1525C19.8334 30.555 20.1209 31.0342 20.8876 30.8808C26.9442 28.8492 31.3334 23.0992 31.3334 16.3333C31.3334 7.86167 24.4717 1 16.0001 1V1Z" fill="white"/>
    </g> -->
</svg>
